<svg xmlns="http://www.w3.org/2000/svg" width="800" height="600" viewBox="0 0 800 600">
<rect width="800" height="600" fill="#F5F0EB"/>
<rect x="120" y="80" width="560" height="450" rx="15" fill="#E8E0D8"/>
<rect x="130" y="90" width="250" height="430" rx="10" fill="#D4C8BC"/>
<rect x="420" y="90" width="250" height="430" rx="10" fill="#D4C8BC"/>
<rect x="380" y="90" width="40" height="430" rx="5" fill="#C4956A"/>
<rect x="140" y="300" width="110" height="8" rx="4" fill="#8B6347"/>
<rect x="260" y="300" width="110" height="8" rx="4" fill="#8B6347"/>
<rect x="140" y="400" width="110" height="8" rx="4" fill="#8B6347"/>
<rect x="260" y="400" width="110" height="8" rx="4" fill="#8B6347"/>
<rect x="430" y="300" width="110" height="8" rx="4" fill="#8B6347"/>
<rect x="550" y="300" width="110" height="8" rx="4" fill="#8B6347"/>
<rect x="430" y="400" width="110" height="8" rx="4" fill="#8B6347"/>
<rect x="550" y="400" width="110" height="8" rx="4" fill="#8B6347"/>
<text x="400" y="575" font-family="Segoe UI,Arial" font-size="28" fill="#5C3D2E" text-anchor="middle" font-weight="bold">TỦ QUẦN ÁO</text>
</svg>